<svg width="30" height="22" viewBox="0 0 30 22" fill="none" xmlns="http://www.w3.org/2000/svg">
<g opacity="0.1" clip-path="url(#clip0_704_115)">
<path d="M0 0L12.4518 0.00645284H12.858V0.393482C12.858 4.55963 12.858 8.72578 12.858 12.8919C12.8548 13.0997 12.8067 13.3041 12.7172 13.4905C11.3865 16.2397 10.0432 18.9838 8.71122 21.733C8.6809 21.8197 8.62292 21.8934 8.54668 21.9421C8.47043 21.9908 8.38038 22.0116 8.29113 22.0013C6.34915 21.9923 4.40592 22.0013 2.46269 22.0013H2.13819L6.40827 13.2286C6.33037 13.2158 6.25186 13.2072 6.17307 13.2028H0.172312C0.11448 13.2064 0.056928 13.2137 0 13.2248V0Z" fill="#121927"/>
<path d="M19.2853 21.995L23.5616 13.2055H17.1597V0.0297852H29.9888V0.33038C29.9888 4.53609 29.9888 8.74223 29.9888 12.9488C29.985 13.1164 29.9455 13.2811 29.8731 13.4313C28.5315 16.1973 27.1873 18.9624 25.8407 21.7266C25.8121 21.8135 25.7556 21.8879 25.6804 21.9376C25.6053 21.9873 25.5159 22.0093 25.4269 22.0001C23.4837 21.9898 21.5404 22.0001 19.5985 22.0001L19.2853 21.995Z" fill="#121927"/>
</g>
<defs>
<clipPath id="clip0_704_115">
<rect width="30" height="22" fill="white"/>
</clipPath>
</defs>
</svg>
