<svg width="1043" height="357" viewBox="0 0 1043 357" fill="none" xmlns="http://www.w3.org/2000/svg">
<g opacity="0.3">
<path d="M905.516 132.486C891.428 102.994 877.851 75.3953 871.427 45.0114C868.106 29.3732 875.698 13.4136 888.873 5.80869C902.852 -2.26036 916.94 -2.08184 930.371 7.34395C943.291 16.4127 949.24 31.9795 944.897 47.6892C936.612 77.6089 921.174 104.065 905.553 132.521L905.516 132.486Z" fill="white"/>
<path d="M948.32 112.063C957.116 90.8547 963.649 71.6104 976.314 55.5437C982.519 47.6532 992.774 45.6537 1002.12 49.2955C1011.61 52.973 1016.61 60.3637 1017.67 70.4678C1018.65 80.1079 1013.69 90.4262 1004.38 93.8895C986.825 100.388 968.759 105.565 948.357 112.098L948.32 112.063Z" fill="white"/>
<path d="M160.305 339.853H110.596C110.596 339.853 89.5365 279.692 48.9878 246.381C49.0973 249.522 51.3967 333.533 51.5426 339.817H0.154179C-0.320288 289.689 0.482657 233.349 0.154179 182.828V99.9594L47.09 78.323C46.871 97.9957 46.9075 150.623 47.8929 170.474L48.6228 214.676C58.3312 208.999 113.479 156.443 120.486 144.946L160.342 168.868C163.955 171.153 92.2374 226.386 86.7992 227.208C86.7992 227.208 160.342 283.834 160.342 339.853H160.305Z" fill="white"/>
<path d="M363.457 339.817H316.521C323.455 268.053 316.229 212.212 297.798 197.395C286.812 188.576 275.717 187.719 275.717 187.719C275.717 187.719 261.446 186.612 245.716 198.538C224.985 214.283 219.036 269.981 231.007 339.853H179.619C179.728 263.697 179.071 176.508 179.619 99.9594L226.554 78.323L226.007 172.331C250.971 134.164 309.696 138.591 336.996 169.189C374.077 209.142 362.946 292.546 363.493 339.853L363.457 339.817Z" fill="white"/>
<path d="M380.534 101.424C379.877 71.4682 440.937 71.4682 440.28 101.424C440.937 131.379 379.877 131.379 380.534 101.424ZM437.433 235.777L440.28 339.853H388.892C388.417 289.725 389.22 233.385 388.892 182.864V168.904L435.827 147.267C434.112 168.332 437.689 224.887 437.433 235.813V235.777Z" fill="white"/>
<path d="M519.334 339.853H467.945C467.471 289.725 468.274 233.384 467.945 182.864V99.9594L514.881 78.323C514.771 98.4599 514.443 151.551 514.333 172.331C514.333 172.331 517.837 292.831 519.37 339.853H519.334Z" fill="white"/>
<path d="M680.718 342.888C680.937 338.568 680.791 325.322 681.01 321.001C610.096 422.686 450.2 281.263 593.015 236.491C621.775 230.742 651.958 233.206 678.346 221.745C680.755 165.654 605.57 184.506 580.861 211.284L559.547 193.218C596.336 149.873 659.732 139.019 697.799 169.403C715.428 183.471 722.435 206.857 728.238 227.565C738.239 263.34 735.355 294.295 732.216 312.468C731.851 322.644 731.45 332.784 731.085 342.959C714.296 342.924 697.507 342.888 680.718 342.852V342.888ZM676.12 283.334C679.222 274.301 682.434 254.664 680.718 244.774C680.718 245.024 647.031 261.233 619.439 265.768C606.848 267.839 589 279.728 597.65 297.687C611.665 326.678 667.47 308.541 676.12 283.334Z" fill="white"/>
<path d="M870.617 147.052V194.788C831.383 169.795 802.732 220.244 804.776 236.633L807.623 340.709H756.234C755.76 290.581 756.563 234.24 756.234 183.72V169.759L803.17 148.123L802.623 173.187C818.317 150.122 844.923 142.303 870.654 147.088L870.617 147.052Z" fill="white"/>
<path d="M935.439 235.777L938.286 339.853H886.897C886.423 289.725 887.226 233.385 886.897 182.864V168.904L933.833 147.267C932.118 168.332 935.694 224.887 935.439 235.812V235.777Z" fill="white"/>
<path d="M964.567 187.114C964.677 164.977 982.232 147.09 1003.73 147.233C1025.52 147.376 1042.89 165.192 1042.82 187.292C1042.71 209.5 1025.12 227.209 1003.29 227.066C981.903 226.923 964.494 208.964 964.567 187.114ZM972.378 187.114C972.378 204.751 986.502 219.176 1003.69 219.104C1021.07 219.033 1035.08 204.716 1035.04 187.042C1035.01 169.476 1020.96 155.195 1003.69 155.195C986.502 155.195 972.378 169.583 972.378 187.114Z" fill="white"/>
<path d="M995.841 191.147V207.071H988.104V167.226H988.943C995.111 167.19 1001.28 167.155 1007.48 167.19C1013.32 167.19 1018.1 171.26 1019.13 176.973C1020.15 182.686 1017.01 188.327 1011.64 190.326L1010.7 190.683C1014.27 196.146 1017.78 201.537 1021.43 207.107H1018.73C1016.79 207.107 1014.86 207.107 1012.96 207.107L1011.54 206.357C1008.43 201.537 1005.26 196.753 1002.16 191.969L1000.51 191.112H995.841V191.147ZM995.841 183.15L996.352 183.221C1000.04 183.221 1003.76 183.221 1007.45 183.221L1008.87 182.971C1010.62 182.364 1011.68 180.543 1011.43 178.723C1011.13 176.723 1009.6 175.295 1007.59 175.259C1004.13 175.259 1000.7 175.259 997.228 175.259H995.841V183.185V183.15Z" fill="white"/>
</g>
</svg>
