<svg width="117" height="40" viewBox="0 0 117 40" fill="none" xmlns="http://www.w3.org/2000/svg">
<path d="M101.458 14.8443C99.8799 11.54 98.3587 8.44765 97.6389 5.0433C97.2668 3.29111 98.1174 1.50292 99.5936 0.650833C101.16 -0.253262 102.738 -0.23326 104.243 0.822851C105.691 1.83896 106.357 3.58314 105.871 5.34333C104.943 8.69568 103.213 11.66 101.462 14.8483L101.458 14.8443Z" fill="#403C3D"/>
<path d="M106.254 12.556C107.24 10.1798 107.972 8.02356 109.391 6.22337C110.086 5.33927 111.235 5.11525 112.282 5.52329C113.345 5.93534 113.906 6.76342 114.024 7.89554C114.135 8.97566 113.578 10.1318 112.536 10.5198C110.569 11.2479 108.544 11.828 106.258 12.56L106.254 12.556Z" fill="#403C3D"/>
<path d="M17.9614 38.0787H12.3917C12.3917 38.0787 10.0321 31.338 5.48883 27.6056C5.5011 27.9577 5.75873 37.3706 5.77509 38.0747H0.017275C-0.0358866 32.4581 0.0540792 26.1455 0.017275 20.4849V11.1999L5.27619 8.77563C5.25165 10.9799 5.25574 16.8765 5.36615 19.1007L5.44794 24.0532C6.53571 23.4172 12.7147 17.5286 13.4999 16.2404L17.9655 18.9207C18.3703 19.1767 10.3347 25.3654 9.7254 25.4574C9.7254 25.4574 17.9655 31.8021 17.9655 38.0787H17.9614Z" fill="#403C3D"/>
<path d="M40.7234 38.0747H35.4645C36.2415 30.0339 35.4318 23.7772 33.3667 22.117C32.1358 21.1289 30.8926 21.0329 30.8926 21.0329C30.8926 21.0329 29.2937 20.9089 27.5311 22.2451C25.2084 24.0092 24.5418 30.2499 25.8831 38.0787H20.1253C20.1376 29.5458 20.064 19.7768 20.1253 11.1999L25.3842 8.77563L25.3229 19.3087C28.12 15.0323 34.6998 15.5283 37.7586 18.9567C41.9134 23.4332 40.6662 32.7782 40.7275 38.0787L40.7234 38.0747Z" fill="#403C3D"/>
<path d="M42.6368 11.3639C42.5632 8.00759 49.4047 8.00759 49.3311 11.3639C49.4047 14.7203 42.5632 14.7203 42.6368 11.3639ZM49.0121 26.4175L49.3311 38.0788H43.5733C43.5201 32.4622 43.6101 26.1495 43.5733 20.4889V18.9247L48.8322 16.5005C48.64 18.8607 49.0407 25.1974 49.0121 26.4215V26.4175Z" fill="#403C3D"/>
<path d="M58.1887 38.0787H52.4308C52.3777 32.4621 52.4677 26.1495 52.4308 20.4889V11.1999L57.6898 8.77563C57.6775 11.0319 57.6407 16.9805 57.6284 19.3087C57.6284 19.3087 58.021 32.8102 58.1927 38.0787H58.1887Z" fill="#403C3D"/>
<path d="M76.271 38.4188C76.2955 37.9347 76.2792 36.4506 76.3037 35.9665C68.3581 47.3597 50.4426 31.514 66.4443 26.4975C69.6667 25.8534 73.0486 26.1295 76.0052 24.8453C76.2751 18.5607 67.851 20.6729 65.0825 23.6732L62.6943 21.649C66.8164 16.7925 73.9196 15.5764 78.1848 18.9807C80.16 20.5569 80.9451 23.1772 81.5953 25.4974C82.7158 29.5058 82.3928 32.9742 82.0411 35.0104C82.0002 36.1505 81.9552 37.2867 81.9143 38.4268C80.0332 38.4228 78.1521 38.4188 76.271 38.4148V38.4188ZM75.7557 31.7461C76.1033 30.734 76.4632 28.5337 76.271 27.4256C76.271 27.4536 72.4965 29.2698 69.405 29.7779C67.9942 30.0099 65.9945 31.342 66.9636 33.3542C68.5339 36.6026 74.7866 34.5704 75.7557 31.7461Z" fill="#403C3D"/>
<path d="M97.5482 16.4764V21.8249C93.1521 19.0246 89.942 24.6772 90.171 26.5134L90.4899 38.1746H84.7321C84.679 32.5581 84.7689 26.2454 84.7321 20.5848V19.0206L89.991 16.5964L89.9297 19.4047C91.6881 16.8204 94.6693 15.9443 97.5523 16.4804L97.5482 16.4764Z" fill="#403C3D"/>
<path d="M104.811 26.4175L105.13 38.0788H99.3723C99.3191 32.4622 99.4091 26.1495 99.3723 20.4889V18.9247L104.631 16.5005C104.439 18.8607 104.84 25.1974 104.811 26.4215V26.4175Z" fill="#403C3D"/>
<path d="M108.075 20.9651C108.087 18.4849 110.054 16.4807 112.463 16.4967C114.904 16.5127 116.85 18.5089 116.842 20.9851C116.83 23.4734 114.859 25.4576 112.414 25.4416C110.017 25.4256 108.067 23.4134 108.075 20.9651ZM108.95 20.9651C108.95 22.9414 110.532 24.5575 112.459 24.5495C114.405 24.5415 115.975 22.9374 115.971 20.9571C115.967 18.9889 114.393 17.3888 112.459 17.3888C110.532 17.3888 108.95 19.0009 108.95 20.9651Z" fill="#403C3D"/>
<path d="M111.579 21.4171V23.2013H110.712V18.7369H110.806C111.497 18.7329 112.188 18.7289 112.883 18.7329C113.538 18.7329 114.073 19.1889 114.188 19.829C114.302 20.469 113.951 21.1011 113.35 21.3251L113.243 21.3651C113.644 21.9772 114.037 22.5813 114.445 23.2053H114.143C113.926 23.2053 113.709 23.2053 113.497 23.2053L113.337 23.1213C112.99 22.5813 112.634 22.0452 112.286 21.5092L112.102 21.4131H111.579V21.4171ZM111.579 20.521L111.636 20.529C112.049 20.529 112.466 20.529 112.879 20.529L113.039 20.501C113.235 20.433 113.354 20.229 113.325 20.025C113.292 19.801 113.121 19.641 112.896 19.637C112.507 19.637 112.123 19.637 111.734 19.637H111.579V20.525V20.521Z" fill="#403C3D"/>
</svg>
